<svg width="18" height="22" viewBox="0 0 18 22" fill="none" xmlns="http://www.w3.org/2000/svg">
<path d="M14.1701 20.16C13.0758 21.2646 11.8684 21.0924 10.7176 20.5716C9.49407 20.0403 8.37555 20.0067 7.08339 20.5716C5.47424 21.294 4.6202 21.084 3.65108 20.16C-1.82041 14.301 -1.01281 5.37599 5.20571 5.03999C6.71391 5.12399 7.76985 5.90729 8.65821 5.97239C9.97863 5.69309 11.2425 4.89299 12.6558 4.99799C14.3538 5.14079 15.6238 5.83799 16.4717 7.09169C12.9789 9.27569 13.8067 14.0637 17.0149 15.4077C16.3728 17.1612 15.5491 18.8937 14.1681 20.1747L14.1701 20.16ZM8.53707 4.97699C8.37353 2.373 10.4026 0.230996 12.7366 0.0209961C13.0576 3.02399 10.1119 5.27099 8.53707 4.97699Z" fill="black"/>
</svg>
