<svg width="18" height="18" viewBox="0 0 18 18" fill="none" xmlns="http://www.w3.org/2000/svg">
<path d="M17.6175 9.2025C17.6175 8.61 17.565 8.0475 17.475 7.5H9V10.8825H13.8525C13.635 11.9925 12.9975 12.93 12.0525 13.5675V15.8175H14.9475C16.6425 14.25 17.6175 11.94 17.6175 9.2025Z" fill="#4285F4"/>
<path d="M9.00003 18C11.43 18 13.4625 17.19 14.9475 15.8175L12.0525 13.5675C11.2425 14.1075 10.215 14.4375 9.00003 14.4375C6.65253 14.4375 4.66503 12.855 3.95253 10.7175H0.967529V13.035C2.44503 15.975 5.48253 18 9.00003 18Z" fill="#34A853"/>
<path d="M3.95253 10.7175C3.76503 10.1775 3.6675 9.60009 3.6675 9.00009C3.6675 8.40009 3.7725 7.82259 3.9525 7.28259V4.96509H0.967499C0.352499 6.18009 0 7.54509 0 9.00009C0 10.4551 0.352529 11.82 0.967529 13.035L3.95253 10.7175Z" fill="#FBBC05"/>
<path d="M9.00003 3.5625C10.3275 3.5625 11.5125 4.02 12.45 4.9125L15.015 2.3475C13.4625 0.892501 11.43 0 9.00003 0C5.48253 0 2.445 2.02509 0.967499 4.96509L3.9525 7.28259C4.665 5.14509 6.65253 3.5625 9.00003 3.5625Z" fill="#EA4335"/>
</svg>
